<svg width="22" height="22" viewBox="0 0 22 22" fill="none" xmlns="http://www.w3.org/2000/svg">
<path d="M22 13.5C22 11.94 20.97 10.63 19.55 10.18C19.83 9.68 20 9.11 20 8.5C20 6.94 18.97 5.63 17.55 5.18C17.83 4.68 18 4.11 18 3.5C18 1.57 16.43 0 14.5 0H7.5C5.57 0 4 1.57 4 3.5C4 4.11 4.17 4.68 4.45 5.18C3.04 5.63 2 6.94 2 8.5C2 9.11 2.17 9.68 2.45 10.18C1.04 10.63 0 11.94 0 13.5C0 14.76 0.67 15.84 1.67 16.46C1.25 17.03 1 17.74 1 18.5C1 20.43 2.57 22 4.5 22H17.5C19.43 22 21 20.43 21 18.5C21 17.74 20.75 17.03 20.33 16.46C21.33 15.84 22 14.76 22 13.5ZM7.5 2H14.5C15.33 2 16 2.67 16 3.5C16 4.33 15.33 5 14.5 5H7.5C6.67 5 6 4.33 6 3.5C6 2.67 6.67 2 7.5 2ZM5.5 7H16.5C17.33 7 18 7.67 18 8.5C18 9.33 17.33 10 16.5 10H5.5C4.67 10 4 9.33 4 8.5C4 7.67 4.67 7 5.5 7ZM3 18.5C3 17.67 3.67 17 4.5 17H8V20H4.5C3.67 20 3 19.33 3 18.5ZM17.5 20H14V17H17.5C18.33 17 19 17.67 19 18.5C19 19.33 18.33 20 17.5 20ZM18.5 15H13.82C13.4 13.84 12.3 13 11 13C9.7 13 8.6 13.84 8.18 15H3.5C2.67 15 2 14.33 2 13.5C2 12.67 2.67 12 3.5 12H18.5C19.33 12 20 12.67 20 13.5C20 14.33 19.33 15 18.5 15Z" fill="#3A3A3A"/>
</svg>
