<svg width="375" height="364" viewBox="0 0 375 364" fill="none" xmlns="http://www.w3.org/2000/svg">
<path d="M-31.8574 165.538C-31.8574 250.763 42.2241 363.341 133.608 363.341C224.993 363.341 374.973 304.072 374.973 218.846C374.973 133.621 224.993 11.2229 133.608 11.2229C42.2241 11.2229 -31.8574 80.312 -31.8574 165.538Z" fill="#FDEBC8"/>
<path d="M-102 154.315C-102 239.541 -27.9184 352.118 63.4658 352.118C154.85 352.118 304.83 292.849 304.83 207.624C304.83 122.398 154.85 0 63.4658 0C-27.9184 0 -102 69.0891 -102 154.315Z" fill="white"/>
<g clip-path="url(#clip0_474_1835)">
<g filter="url(#filter0_i_474_1835)">
<path d="M164.852 190.171C147.981 201.272 131.235 212.258 114.488 223.243C114.044 223.534 113.585 223.805 113.149 224.108C111.729 225.095 111.023 224.667 110.929 223.03C110.903 222.573 110.923 222.113 110.923 221.655C110.923 194.45 110.953 167.245 110.869 140.04C110.862 137.719 111.763 136.509 113.7 135.442C124.217 129.649 134.666 123.735 145.165 117.909C153.139 113.484 161.158 109.136 169.148 104.739C172.743 102.761 176.302 100.719 179.911 98.7681C180.658 98.3642 181.556 98.2316 182.662 97.8876C182.662 99.0292 182.662 99.7828 182.662 100.536C182.662 125.678 182.642 150.82 182.702 175.961C182.707 177.878 182.044 178.961 180.416 179.979C175.206 183.238 170.114 186.683 164.852 190.171ZM135.406 176.001C131.02 178.733 128.872 182.889 128.28 187.749C128.122 189.041 129.079 190.971 130.159 191.729C130.923 192.265 133.044 191.706 134.065 190.971C137.869 188.23 140.007 184.325 140.686 179.779C141.178 176.489 138.954 174.844 135.406 176.001ZM168.192 160.939C166.915 157.206 165.132 157.206 163.064 158.67C158.894 161.624 156.552 165.651 156.611 170.773C156.646 173.806 159.319 175.256 161.62 173.569C165.759 170.535 168.064 166.476 168.192 160.939ZM129.079 155.992C130.192 158.061 131.424 158.41 133.635 157.284C137.813 155.155 140.863 149.429 140.266 144.834C139.965 142.519 138.122 141.489 135.96 142.465C135.276 142.774 134.621 143.167 134 143.59C130.365 146.065 127.932 151.96 129.079 155.992ZM167.289 133.542C167.316 131.622 167.252 129.694 167.394 127.782C167.544 125.764 166.009 125.871 164.906 125.981C163.928 126.078 162.918 126.706 162.096 127.323C158.882 129.735 157.152 133.089 156.731 136.944C156.6 138.144 157.406 139.724 158.289 140.676C159.284 141.749 160.917 141.651 162.238 140.868C164.917 139.281 166.451 136.843 167.289 133.542Z" fill="url(#paint0_linear_474_1835)"/>
</g>
<path d="M62.2916 198.67C74.7743 206.911 87.1163 215.057 99.4535 223.21C100.086 223.627 100.611 224.28 101.296 224.529C106.707 226.491 107.72 230.473 107.261 235.653C106.838 240.422 107.171 245.257 107.171 250.445C106.317 250.21 105.558 250.187 105.036 249.828C94.8452 242.842 84.6747 235.827 74.5157 228.796C61.6743 219.909 48.8323 211.022 36.0487 202.055C35.2714 201.509 34.5945 200.27 34.5683 199.334C34.4251 194.221 34.4628 189.102 34.5422 183.986C34.5535 183.257 34.948 182.231 35.5037 181.909C35.9542 181.648 37.0206 182.08 37.6304 182.477C45.8224 187.815 53.9822 193.201 62.2916 198.67Z" fill="url(#paint1_linear_474_1835)"/>
<path d="M62.7574 225.733C75.2401 233.975 87.5821 242.12 99.9193 250.273C100.551 250.691 101.077 251.343 101.762 251.592C107.172 253.554 108.186 257.536 107.726 262.716C107.303 267.485 107.636 272.32 107.636 277.509C106.783 277.273 106.024 277.25 105.501 276.892C95.311 269.905 85.1405 262.89 74.9815 255.859C62.1401 246.972 49.2982 238.085 36.5145 229.118C35.7372 228.573 35.0603 227.333 35.0341 226.397C34.8909 221.284 34.9286 216.165 35.008 211.049C35.0193 210.32 35.4138 209.294 35.9695 208.972C36.42 208.712 37.4864 209.143 38.0962 209.54C46.2882 214.878 54.448 220.264 62.7574 225.733Z" fill="url(#paint2_linear_474_1835)"/>
<path d="M144.743 207.64C157.173 199.353 169.46 191.161 182.08 182.747C182.308 183.681 182.609 184.346 182.613 185.014C182.651 190.818 182.727 196.625 182.55 202.423C182.518 203.461 181.616 204.811 180.705 205.43C173.364 210.41 165.922 215.245 158.518 220.135C146.372 228.156 134.231 236.185 122.09 244.213C119.245 246.095 116.411 247.993 113.562 249.869C112.946 250.274 112.289 250.618 111.307 251.19C111.133 250.049 110.916 249.273 110.912 248.496C110.881 243.227 110.946 237.957 110.87 232.689C110.842 230.724 111.655 229.442 113.276 228.384C120.641 223.574 127.962 218.7 135.302 213.853C138.399 211.808 141.502 209.774 144.743 207.64Z" fill="url(#paint3_linear_474_1835)"/>
<path d="M147.074 234.244C159.503 225.957 171.79 217.765 184.41 209.352C184.638 210.285 184.939 210.951 184.943 211.619C184.981 217.422 185.057 223.229 184.88 229.028C184.848 230.065 183.946 231.416 183.035 232.034C175.694 237.015 168.252 241.85 160.848 246.739C148.702 254.761 136.561 262.79 124.42 270.818C121.575 272.699 118.741 274.597 115.892 276.473C115.276 276.879 114.619 277.223 113.637 277.795C113.463 276.653 113.246 275.878 113.242 275.101C113.211 269.832 113.276 264.562 113.2 259.293C113.172 257.329 113.986 256.047 115.606 254.988C122.971 250.178 130.292 245.304 137.632 240.458C140.729 238.413 143.832 236.378 147.074 234.244Z" fill="url(#paint4_linear_474_1835)"/>
<path d="M145.209 236.538C157.638 228.251 169.926 220.059 182.545 211.645C182.774 212.579 183.075 213.244 183.079 213.912C183.116 219.716 183.193 225.523 183.015 231.321C182.984 232.359 182.082 233.709 181.17 234.328C173.83 239.308 166.388 244.143 158.984 249.033C146.838 257.055 134.697 265.083 122.556 273.111C119.711 274.993 116.877 276.891 114.028 278.767C113.412 279.172 112.754 279.516 111.773 280.088C111.599 278.947 111.382 278.171 111.377 277.395C111.347 272.125 111.412 266.855 111.336 261.587C111.307 259.622 112.121 258.34 113.742 257.282C121.106 252.472 128.428 247.598 135.768 242.751C138.864 240.706 141.968 238.672 145.209 236.538Z" fill="url(#paint5_linear_474_1835)"/>
<path d="M33.3964 79.5439C33.5328 79.899 33.523 80.3236 33.4678 80.9603C33.365 80.6527 33.3076 80.1331 33.3964 79.5439Z" fill="url(#paint6_linear_474_1835)"/>
<path d="M185.799 80.7929C185.673 80.8639 185.576 80.7932 185.458 80.6134C185.59 80.4673 185.721 80.5163 185.799 80.7929Z" fill="url(#paint7_linear_474_1835)"/>
<g filter="url(#filter1_i_474_1835)">
<path d="M86.6458 211.681C70.2383 200.817 53.9805 190.035 37.6907 179.301C36.4409 178.477 35.6793 177.673 35.6818 176.065C35.7228 149.766 35.6299 124.186 35.6364 97.8875C35.5578 98.9228 35.6365 97.3034 35.6364 97.8875C38.341 99.3631 41.043 97.7215 43.4427 99.1037C51.4745 103.73 59.4861 108.39 67.5027 113.042C76.9624 118.531 86.4134 124.035 95.8805 129.512C99.17 131.415 102.474 133.295 105.815 135.108C107.382 135.958 108.424 136.869 108.42 138.894C108.363 167.104 108.382 195.314 108.379 223.524C108.379 223.976 108.337 224.428 108.3 225.188C107.56 225.003 106.856 224.999 106.365 224.679C99.8215 220.404 93.3082 216.084 86.6458 211.681ZM88.3185 191.429C90.1001 190.667 90.8731 189.297 90.6712 187.434C90.1646 182.758 88.3783 178.718 84.3418 175.954C80.8574 173.568 78.9992 174.334 78.3654 178.343C78.2566 179.031 78.446 179.781 78.5773 180.488C79.452 185.197 83.1748 190.876 88.3185 191.429ZM61.7946 166.287C60.834 162.622 58.7673 159.741 55.4679 157.777C53.5273 156.621 51.7062 157.182 51.1498 159.334C50.7951 160.706 50.7824 162.316 51.141 163.686C52.2198 167.808 54.1972 171.379 58.3343 173.375C59.8154 174.09 61.1459 173.734 61.4796 172.35C61.9172 170.535 61.7291 168.573 61.7946 166.287ZM50.807 131.031C51.7514 135.151 53.6349 138.661 57.5953 140.696C59.6844 141.77 61.0084 141.139 61.8249 138.908C63.2841 134.923 60.0351 128.486 56.1981 126.062C53.3372 124.254 50.9642 125.495 50.6315 128.84C50.5715 129.443 50.644 130.058 50.807 131.031ZM82.3468 141.638C79.4759 141.656 78.5755 142.467 78.5766 145.191C78.5784 149.742 80.7097 153.332 84.2431 156.013C85.2717 156.793 87.4258 157.3 88.3394 156.755C89.3853 156.131 90.2041 154.156 90.1105 152.837C89.7577 147.867 87.1616 144.117 82.3468 141.638Z" fill="url(#paint8_linear_474_1835)"/>
</g>
<g filter="url(#filter2_i_474_1835)">
<path d="M35.6365 95.1354C42.9007 91.6693 47.3811 89.8377 54.6403 86.3617C66.1807 80.8358 77.705 75.279 89.2551 69.7728C95.431 66.8286 101.608 63.882 107.875 61.1345C109.039 60.624 110.875 60.5772 111.987 61.1272C127.152 68.6247 142.251 76.2478 157.348 83.8768C166.386 88.4443 173.157 92.2164 182.375 96.9702C182.375 101.904 180.279 96.9838 182.841 98.6618C183.54 106.873 181.436 127.197 180.751 127.56C172.891 131.731 171.848 108.88 163.975 113.028C158.58 172.629 141.848 120.364 130.435 128.85C126.708 130.914 115.561 141.933 111.801 143.758C110.431 163.023 103.913 154.099 103.913 147.513C92.6167 177.034 86.1127 137.043 71.7843 129.015C61.8422 123.444 61.6567 160.194 35.6364 99.5355C35.6364 99.3062 35.2525 95.3186 35.6365 95.1354ZM101.152 116.993C106.163 119.357 111.137 119.342 115.995 116.626C117.348 115.869 118.702 114.593 117.833 113.028C117.156 111.807 115.735 110.659 114.388 110.186C110.089 108.678 105.651 108.532 101.478 110.599C100.274 111.196 98.9694 112.536 98.7198 113.739C98.5448 114.582 100.081 115.769 101.152 116.993ZM148.686 99.048C148.332 97.9855 148.311 96.5186 147.57 95.9275C143.313 92.5322 135.156 92.2897 130.755 95.8976C129.327 97.0679 129.33 98.905 130.796 100.083C134.188 102.808 138.168 103.249 142.263 102.535C144.586 102.13 147.223 101.928 148.686 99.048ZM119.022 82.4206C118.015 81.411 117.175 80.071 115.958 79.4741C114.373 78.6963 112.48 78.1099 110.737 78.1519C107.512 78.2298 104.141 78.3106 101.56 80.7695C99.8985 82.3515 99.9673 83.7279 101.922 84.9339C105.802 87.3283 110.067 87.825 114.356 86.5005C116.225 85.9236 118.598 85.3719 119.022 82.4206ZM78.7352 93.1574C76.4055 93.7669 73.9227 94.0599 71.7843 95.0642C68.982 96.3803 68.9689 98.1823 71.3223 100.075C74.6589 102.759 83.6011 102.445 86.6959 99.5355C88.2401 98.0836 88.1209 95.9841 86.0748 95.0945C83.9007 94.1491 81.4687 93.7789 78.7352 93.1574Z" fill="url(#paint9_linear_474_1835)"/>
</g>
<path d="M182.482 96.9702V96.9054L182.424 96.8757C178.394 94.7977 174.83 92.9062 171.34 91.0534C166.849 88.6703 162.48 86.3513 157.395 83.782C142.299 76.153 127.199 68.5297 112.035 61.032C111.459 60.7472 110.704 60.62 109.95 60.6269C109.195 60.6338 108.43 60.775 107.832 61.0372C101.606 63.7672 95.4674 66.6935 89.333 69.6179L89.2094 69.6768C82.0489 73.0904 74.8981 76.5236 67.7473 79.9567C63.3638 82.0612 58.9802 84.1658 54.5945 86.2659C50.966 88.0033 48.032 89.3297 45.0965 90.6554L44.9578 90.718C42.0683 92.0229 39.1667 93.3332 35.5907 95.0395C35.5331 95.067 35.4986 95.1209 35.4769 95.1677C35.4537 95.2175 35.4361 95.2788 35.4222 95.3461C35.3942 95.4814 35.3774 95.6597 35.3683 95.8632C35.3501 96.2713 35.3623 96.798 35.3863 97.323C35.4104 97.8487 35.4464 98.3755 35.4765 98.7848C35.4862 98.9181 35.4953 99.038 35.5031 99.141C35.5194 99.3581 35.5302 99.5001 35.5302 99.5355L35.5302 99.5573L35.5388 99.5774C42.0445 114.743 46.9388 123.829 50.7783 129.012C54.6131 134.188 57.423 135.505 59.7605 135.037C60.9223 134.805 61.9488 134.133 62.9076 133.314C63.5045 132.804 64.0834 132.229 64.6539 131.662C64.9962 131.322 65.3355 130.984 65.6738 130.666C66.5833 129.81 67.494 129.082 68.479 128.737C69.4567 128.394 70.5153 128.426 71.7323 129.107C75.2892 131.1 78.3702 135.084 81.1709 139.5C82.504 141.602 83.7711 143.798 84.9945 145.918L85.1761 146.233C86.4551 148.448 87.6877 150.572 88.897 152.403C90.1057 154.233 91.2955 155.777 92.4908 156.83C93.6857 157.882 94.9002 158.455 96.1541 158.312C97.407 158.168 98.6669 157.314 99.9616 155.587C101.198 153.938 102.477 151.48 103.82 148.047C103.896 149.556 104.285 151.139 104.855 152.456C105.174 153.193 105.551 153.85 105.964 154.365C106.377 154.879 106.831 155.259 107.307 155.43C107.789 155.602 108.285 155.558 108.762 155.237C109.234 154.919 109.681 154.336 110.087 153.442C110.896 151.662 111.559 148.611 111.903 143.826C112.854 143.351 114.242 142.327 115.841 141.031C117.475 139.708 119.339 138.094 121.2 136.474C121.39 136.308 121.58 136.142 121.77 135.977C123.439 134.523 125.087 133.088 126.547 131.875C128.176 130.522 129.564 129.453 130.486 128.943L130.492 128.939L130.498 128.935C131.893 127.898 133.366 127.787 134.899 128.279C136.438 128.773 138.036 129.875 139.662 131.26C141.032 132.427 142.415 133.789 143.794 135.147C144.051 135.4 144.309 135.654 144.565 135.906C146.198 137.506 147.821 139.049 149.399 140.193C150.975 141.336 152.522 142.092 154.001 142.095C155.489 142.098 156.884 141.339 158.15 139.512C159.415 137.688 160.559 134.792 161.556 130.496C162.551 126.209 163.402 120.52 164.075 113.096C165.019 112.611 165.852 112.527 166.605 112.735C167.376 112.947 168.076 113.467 168.733 114.206C170.048 115.686 171.156 118.007 172.272 120.348L172.278 120.36C173.387 122.688 174.506 125.034 175.842 126.536C176.512 127.29 177.245 127.84 178.069 128.065C178.895 128.291 179.799 128.186 180.801 127.654C180.831 127.638 180.854 127.613 180.87 127.592C180.886 127.569 180.901 127.543 180.915 127.515C180.942 127.458 180.969 127.385 180.997 127.297C181.051 127.121 181.109 126.876 181.17 126.572C181.293 125.962 181.429 125.104 181.57 124.06C181.853 121.973 182.158 119.141 182.421 116.063C182.945 109.91 183.297 102.769 182.947 98.6528L182.943 98.6012L182.899 98.5729C182.717 98.4531 182.554 98.3644 182.41 98.3027C182.455 97.967 182.482 97.5304 182.482 96.9702ZM115.943 116.533C111.124 119.228 106.193 119.247 101.217 116.906C100.951 116.603 100.658 116.303 100.371 116.012L100.309 115.948C100.038 115.674 99.7763 115.408 99.548 115.152C99.3017 114.876 99.099 114.618 98.9687 114.38C98.8378 114.14 98.7875 113.935 98.8238 113.76C98.9433 113.185 99.3186 112.566 99.8196 112.013C100.32 111.462 100.936 110.986 101.525 110.694C105.666 108.642 110.073 108.785 114.352 110.287C115.677 110.751 117.076 111.883 117.741 113.08C118.153 113.823 118.04 114.49 117.659 115.072C117.273 115.66 116.613 116.158 115.943 116.533ZM147.504 96.0105C147.844 96.2818 148.028 96.7634 148.17 97.3366C148.222 97.5456 148.267 97.7618 148.313 97.9803C148.329 98.0592 148.346 98.1383 148.363 98.2175C148.423 98.4988 148.487 98.7792 148.571 99.0389C147.25 101.599 144.983 101.974 142.818 102.333C142.626 102.365 142.435 102.397 142.245 102.43C138.168 103.141 134.223 102.7 130.863 100C130.151 99.4284 129.802 98.7035 129.797 97.9866C129.792 97.2698 130.13 96.5471 130.822 95.9798C132.998 94.196 136.111 93.3587 139.215 93.3926C142.32 93.4265 145.398 94.3313 147.504 96.0105ZM115.912 79.5695C116.501 79.8589 117.004 80.3309 117.49 80.8641C117.673 81.065 117.855 81.2766 118.038 81.4895C118.323 81.8205 118.611 82.1548 118.909 82.4576C118.693 83.8694 118.018 84.7056 117.172 85.2622C116.405 85.767 115.498 86.0424 114.645 86.3013C114.538 86.334 114.431 86.3664 114.325 86.399C110.064 87.7146 105.832 87.2214 101.978 84.8435C101.011 84.247 100.541 83.6264 100.491 82.9844C100.441 82.3403 100.81 81.6303 101.633 80.8464C104.18 78.4202 107.507 78.3362 110.739 78.2582C112.459 78.2167 114.335 78.796 115.912 79.5695ZM71.8295 95.1604C72.8886 94.663 74.0353 94.3407 75.2122 94.0663C75.6614 93.9615 76.1165 93.8634 76.5727 93.7651C77.2982 93.6088 78.0262 93.452 78.737 93.2668C79.3594 93.4081 79.9648 93.5362 80.5541 93.6609C82.5534 94.0841 84.3678 94.4681 86.0324 95.1919C87.0263 95.624 87.5385 96.342 87.6261 97.1161C87.7141 97.8935 87.3763 98.7499 86.6231 99.4581C85.8659 100.17 84.744 100.729 83.4269 101.123C82.1112 101.517 80.6081 101.744 79.096 101.797C77.5839 101.85 76.0658 101.729 74.72 101.429C73.3728 101.128 72.2056 100.65 71.3889 99.9925C70.2182 99.0509 69.6704 98.1575 69.7259 97.3608C69.7811 96.5691 70.4379 95.814 71.8295 95.1604Z" stroke="#FBF7F7" stroke-width="0.212539"/>
<path d="M265.521 166.482C265.521 145.35 265.521 124.437 265.521 103.397C263.864 103.397 262.321 103.397 260.557 103.397C260.557 136.807 260.557 170.26 260.557 203.843C256.361 203.843 252.377 203.843 248.168 203.843C248.168 170.433 248.168 136.982 248.168 103.401C246.412 103.401 244.869 103.401 243.104 103.401C243.104 136.799 243.104 170.253 243.104 203.839C239.097 203.839 235.3 203.839 231.331 203.839C231.331 166.662 231.331 129.434 231.331 92.0353C232.051 92.0045 232.857 91.9405 233.663 91.94C244.646 91.9334 255.629 91.9646 266.612 91.9246C273.178 91.9007 277.267 94.3504 277.378 99.141C277.414 100.702 277.888 102.26 277.89 103.82C277.923 132.08 277.914 160.34 277.914 188.6C277.914 193.641 277.914 198.683 277.914 203.847C273.438 203.847 269.641 203.847 265.521 203.847C265.521 191.484 265.521 179.092 265.521 166.482Z" fill="black"/>
<path d="M321.249 139.92C321.249 127.426 321.205 115.151 321.297 102.876C321.31 101.067 321.861 99.2444 322.348 97.458C323.489 93.2706 327.603 92.1394 331.162 92.0311C337.731 91.831 344.318 91.9739 351.052 91.9739C351.052 129.447 351.052 166.815 351.052 204.306C347.085 204.306 343.088 204.306 338.863 204.306C338.863 184.103 338.863 163.877 338.863 143.53C337.099 143.53 335.551 143.53 333.778 143.53C333.778 163.726 333.778 183.953 333.778 204.305C329.565 204.305 325.567 204.305 321.249 204.305C321.249 182.932 321.249 161.535 321.249 139.92ZM338.743 103.649C337.337 103.498 335.931 103.347 334.405 103.183C334.405 112.965 334.405 122.475 334.405 131.956C335.921 131.956 337.279 131.956 338.77 131.956C338.77 122.581 338.77 113.324 338.743 103.649Z" fill="#0B0805"/>
<path d="M285.368 124.187C285.368 113.376 285.368 102.783 285.368 91.9298C291.908 91.9298 298.342 91.9109 304.776 91.9442C306.23 91.9517 307.748 91.9682 309.124 92.2788C312.92 93.1356 313.98 95.6212 314.656 98.2664C314.674 98.3362 314.657 98.4113 314.659 98.4839C314.847 107.525 315.163 116.566 315.181 125.608C315.196 132.834 314.938 140.063 314.616 147.285C314.48 150.326 310.493 154.192 305.846 153.862C303.259 153.678 300.633 153.829 297.815 153.829C297.815 170.556 297.815 187.146 297.815 203.847C293.621 203.847 289.639 203.847 285.368 203.847C285.368 177.358 285.368 150.882 285.368 124.187ZM297.762 104.022C297.762 116.967 297.762 129.912 297.762 142.805C299.444 142.805 300.798 142.805 302.146 142.805C302.146 129.59 302.146 116.502 302.146 103.137C300.597 103.304 299.193 103.454 297.762 104.022Z" fill="#F8BB51"/>
<path d="M241.31 213.98C246.868 215.994 250.726 219.059 251.372 224.239C252.151 230.483 249.889 235.485 242.549 238.419C247.805 239.93 251.092 242.875 252.498 247.213C254.089 252.125 253.109 256.787 249.188 260.589C245.754 263.918 240.933 265.573 235.74 265.671C226.058 265.854 216.368 265.733 206.681 265.719C203.065 265.714 201.063 263.999 201.06 260.906C201.049 246.37 201.048 231.834 201.062 217.298C201.065 214.356 203.1 212.603 206.53 212.596C215.937 212.576 225.346 212.508 234.75 212.651C236.872 212.684 238.978 213.499 241.31 213.98ZM239.649 250.259C239.133 246.174 236.809 244.117 232.495 243.897C231.306 243.836 230.122 243.645 228.934 243.637C224.346 243.606 219.757 243.624 215.178 243.624C215.178 248.016 215.178 252.244 215.178 256.916C220.471 256.685 225.607 256.445 230.744 256.241C236.636 256.006 237.916 255.217 239.649 250.259ZM236.026 232.032C238.011 229.901 238.54 227.675 236.95 225.151C235.498 222.845 233.077 222.246 230.317 222.079C229.398 222.023 228.478 221.939 227.558 221.935C223.442 221.92 219.326 221.928 215.261 221.928C215.261 226.064 215.261 230.192 215.261 234.411C218.917 234.411 222.411 234.743 225.772 234.318C229.115 233.894 232.875 234.567 236.026 232.032Z" fill="#F8BB51"/>
<path d="M213.27 184.783C213.27 187.61 213.27 190.219 213.27 193.002C216.052 193.002 218.723 193.002 221.549 193.002C221.549 196.843 221.549 200.512 221.549 204.306C214.79 204.306 208 204.306 201.052 204.306C201.052 166.902 201.052 129.478 201.052 91.9244C207.608 91.9244 214.21 91.9244 220.98 91.9244C220.98 95.5512 220.98 99.2207 220.98 103.065C218.557 103.065 216.073 103.065 213.432 103.065C213.432 112.727 213.432 122.216 213.432 131.88C216.048 131.88 218.72 131.88 221.547 131.88C221.547 135.721 221.547 139.391 221.547 143.236C218.924 143.236 216.252 143.236 213.27 143.236C213.27 157.127 213.27 170.846 213.27 184.783Z" fill="#F8BB51"/>
<path d="M327.025 242.967C324.716 242.967 322.684 242.967 320.482 242.967C320.482 247.543 320.482 251.944 320.482 256.742C321.371 256.742 322.344 256.742 323.316 256.742C330.86 256.742 338.404 256.732 345.947 256.746C349.555 256.753 351.052 258.099 351.051 261.26C351.051 264.411 349.546 265.759 345.933 265.762C334.571 265.773 323.209 265.776 311.847 265.76C308.404 265.755 306.345 264.008 306.342 261.082C306.327 246.52 306.329 231.958 306.34 217.396C306.342 214.296 308.342 212.577 311.957 212.573C323.319 212.559 334.681 212.558 346.043 212.573C349.594 212.578 351.065 213.96 351.051 217.168C351.038 220.184 349.519 221.578 346.116 221.586C337.651 221.605 329.185 221.593 320.514 221.593C320.514 225.696 320.514 229.677 320.514 233.942C325.526 233.942 330.523 233.942 335.52 233.942C338.5 233.942 341.48 233.923 344.46 233.947C347.933 233.976 349.401 235.39 349.375 238.622C349.35 241.599 347.811 242.951 344.346 242.962C338.665 242.98 332.984 242.967 327.025 242.967Z" fill="#F8BB51"/>
<path d="M275.682 265.766C271.584 265.766 267.766 265.781 263.948 265.762C260.443 265.745 258.367 264.058 258.363 261.151C258.345 246.51 258.346 231.869 258.362 217.228C258.366 214.309 260.431 212.578 263.895 212.573C275.256 212.558 286.618 212.56 297.98 212.572C301.582 212.576 303.073 213.927 303.07 217.097C303.067 220.239 301.556 221.582 297.938 221.588C290.395 221.601 282.852 221.592 275.308 221.592C274.4 221.592 273.492 221.592 272.464 221.592C272.464 225.76 272.464 229.684 272.464 233.942C273.475 233.942 274.458 233.942 275.442 233.942C282.426 233.942 289.411 233.929 296.395 233.948C299.937 233.957 301.408 235.341 301.393 238.551C301.379 241.561 299.856 242.952 296.448 242.961C288.542 242.98 280.637 242.967 272.53 242.967C272.53 247.552 272.53 252.007 272.53 256.741C277.553 256.741 282.55 256.741 287.548 256.741C290.994 256.741 294.439 256.732 297.885 256.744C301.544 256.757 303.06 258.067 303.07 261.191C303.081 264.46 301.584 265.759 297.753 265.764C290.489 265.772 283.225 265.766 275.682 265.766Z" fill="black"/>
</g>
<defs>
<filter id="filter0_i_474_1835" x="110.869" y="97.8876" width="71.833" height="127.596" filterUnits="userSpaceOnUse" color-interpolation-filters="sRGB">
<feFlood flood-opacity="0" result="BackgroundImageFix"/>
<feBlend mode="normal" in="SourceGraphic" in2="BackgroundImageFix" result="shape"/>
<feColorMatrix in="SourceAlpha" type="matrix" values="0 0 0 0 0 0 0 0 0 0 0 0 0 0 0 0 0 0 127 0" result="hardAlpha"/>
<feOffset dy="0.850157"/>
<feGaussianBlur stdDeviation="0.425079"/>
<feComposite in2="hardAlpha" operator="arithmetic" k2="-1" k3="1"/>
<feColorMatrix type="matrix" values="0 0 0 0 0 0 0 0 0 0 0 0 0 0 0 0 0 0 0.25 0"/>
<feBlend mode="normal" in2="shape" result="effect1_innerShadow_474_1835"/>
</filter>
<filter id="filter1_i_474_1835" x="35.6016" y="97.7565" width="72.8184" height="128.282" filterUnits="userSpaceOnUse" color-interpolation-filters="sRGB">
<feFlood flood-opacity="0" result="BackgroundImageFix"/>
<feBlend mode="normal" in="SourceGraphic" in2="BackgroundImageFix" result="shape"/>
<feColorMatrix in="SourceAlpha" type="matrix" values="0 0 0 0 0 0 0 0 0 0 0 0 0 0 0 0 0 0 127 0" result="hardAlpha"/>
<feOffset dy="0.850157"/>
<feGaussianBlur stdDeviation="0.425079"/>
<feComposite in2="hardAlpha" operator="arithmetic" k2="-1" k3="1"/>
<feColorMatrix type="matrix" values="0 0 0 0 0 0 0 0 0 0 0 0 0 0 0 0 0 0 0.25 0"/>
<feBlend mode="normal" in2="shape" result="effect1_innerShadow_474_1835"/>
</filter>
<filter id="filter2_i_474_1835" x="35.2529" y="60.5204" width="147.941" height="98.7693" filterUnits="userSpaceOnUse" color-interpolation-filters="sRGB">
<feFlood flood-opacity="0" result="BackgroundImageFix"/>
<feBlend mode="normal" in="SourceGraphic" in2="BackgroundImageFix" result="shape"/>
<feColorMatrix in="SourceAlpha" type="matrix" values="0 0 0 0 0 0 0 0 0 0 0 0 0 0 0 0 0 0 127 0" result="hardAlpha"/>
<feOffset dy="0.850157"/>
<feGaussianBlur stdDeviation="0.425079"/>
<feComposite in2="hardAlpha" operator="arithmetic" k2="-1" k3="1"/>
<feColorMatrix type="matrix" values="0 0 0 0 0 0 0 0 0 0 0 0 0 0 0 0 0 0 0.25 0"/>
<feBlend mode="normal" in2="shape" result="effect1_innerShadow_474_1835"/>
</filter>
<linearGradient id="paint0_linear_474_1835" x1="146.786" y1="97.8876" x2="146.786" y2="224.633" gradientUnits="userSpaceOnUse">
<stop stop-color="#E4931D" stop-opacity="0"/>
<stop offset="0.0001" stop-color="#F39000" stop-opacity="0.7"/>
<stop offset="0.485" stop-color="#F59B19" stop-opacity="0.492674"/>
<stop offset="1" stop-color="#F7A733"/>
</linearGradient>
<linearGradient id="paint1_linear_474_1835" x1="63.7369" y1="193.144" x2="63.7369" y2="261.76" gradientUnits="userSpaceOnUse">
<stop offset="0.585" stop-color="#F7A733"/>
<stop offset="1" stop-color="#F7A733" stop-opacity="0"/>
</linearGradient>
<linearGradient id="paint2_linear_474_1835" x1="64.2027" y1="220.207" x2="64.2027" y2="288.823" gradientUnits="userSpaceOnUse">
<stop offset="0.585" stop-color="#F7A733"/>
<stop offset="1" stop-color="#F7A733" stop-opacity="0"/>
</linearGradient>
<linearGradient id="paint3_linear_474_1835" x1="146.766" y1="182.747" x2="146.766" y2="251.19" gradientUnits="userSpaceOnUse">
<stop offset="0.585" stop-color="#F7A733"/>
<stop offset="1" stop-color="#F7A733" stop-opacity="0"/>
</linearGradient>
<linearGradient id="paint4_linear_474_1835" x1="149.096" y1="209.352" x2="149.096" y2="277.795" gradientUnits="userSpaceOnUse">
<stop offset="0.585" stop-color="#F7A733"/>
<stop offset="1" stop-color="#F7A733" stop-opacity="0"/>
</linearGradient>
<linearGradient id="paint5_linear_474_1835" x1="147.231" y1="211.645" x2="147.231" y2="280.088" gradientUnits="userSpaceOnUse">
<stop offset="0.585" stop-color="#F7A733"/>
<stop offset="1" stop-color="#F7A733" stop-opacity="0"/>
</linearGradient>
<linearGradient id="paint6_linear_474_1835" x1="33.4292" y1="79.5439" x2="33.4292" y2="80.9603" gradientUnits="userSpaceOnUse">
<stop offset="0.585" stop-color="#F7A733"/>
<stop offset="1" stop-color="#F7A733" stop-opacity="0"/>
</linearGradient>
<linearGradient id="paint7_linear_474_1835" x1="185.629" y1="80.533" x2="185.629" y2="80.8201" gradientUnits="userSpaceOnUse">
<stop offset="0.585" stop-color="#F7A733"/>
<stop offset="1" stop-color="#F7A733" stop-opacity="0"/>
</linearGradient>
<linearGradient id="paint8_linear_474_1835" x1="72.011" y1="97.7565" x2="72.011" y2="225.188" gradientUnits="userSpaceOnUse">
<stop stop-color="#F7A733"/>
<stop offset="0.9999" stop-color="#FBD78C"/>
<stop offset="1" stop-color="#FBD78C" stop-opacity="0"/>
</linearGradient>
<linearGradient id="paint9_linear_474_1835" x1="109.462" y1="45.5958" x2="109.462" y2="124.501" gradientUnits="userSpaceOnUse">
<stop stop-color="#F8F1E8" stop-opacity="0"/>
<stop offset="0.635" stop-color="#F7A733"/>
</linearGradient>
<clipPath id="clip0_474_1835">
<rect width="375" height="261" fill="white" transform="translate(0 30)"/>
</clipPath>
</defs>
</svg>
